<?xml version="1.0" encoding="utf-8"?>
<!-- Generator: Adobe Illustrator 12.0.1, SVG Export Plug-In . SVG Version: 6.00 Build 51448)  -->
<!DOCTYPE svg PUBLIC "-//W3C//DTD SVG 1.1//EN" "http://www.w3.org/Graphics/SVG/1.1/DTD/svg11.dtd" [
	<!ENTITY ns_svg "http://www.w3.org/2000/svg">
	<!ENTITY ns_xlink "http://www.w3.org/1999/xlink">
]>
<svg  version="1.1" id="Layer_2" xmlns="&ns_svg;" xmlns:xlink="&ns_xlink;" width="675.677" height="519.398"
	 viewBox="0 0 675.677 519.398" overflow="visible" enable-background="new 0 0 675.677 519.398" xml:space="preserve">
<path d="M667.489,386.221c0-4.335-4.816-7.225-4.816-7.225c2.168-2.167-1.204-14.208-12.522-12.522
	c-3.131,0-23.48-25.648-29.622-31.789c-0.595-0.595-1.392-1.114-2.189-1.626c3.356,1.084,6.201,1.769,7.773,1.829
	c5.585,0.203,3.409-13.336,1.859-14.886c-1.551-1.551-1.859-15.202-1.859-20.786c0-5.585-9.151-18.77-14.585-22.036
	c-6.208-14.276-21.403-10.853-26.37-8.685c-4.967,2.167-29.471,2.483-40.271-1.724l-0.045,0.03
	c-13.275-27.973-39.413-55.134-53.787-58.784c-20.229-5.14-40.459-11.567-59.725-0.323c-5.464-2.566-18.311-7.699-20.877-5.133
	c-27.288-15.736-72.879-20.229-98.572-18.627c-25.693,1.604-61.343-11.566-78.999-32.432c1.287-8.026,11.244-15.736,11.244-36.605
	s-11.567-19.593-11.567-19.593c0-10.597-9.393-59.002-27.454-77.064c-18.062-18.062-82.362-32.752-119.931,7.225
	c-37.569,39.977-23.759,79.156-18.303,98.099c0,3.209,2.566,25.369,2.566,32.752s6.104,33.399,26.333,47.202
	c11.56,8.022,24.722,12.191,24.722,14.766c0,2.573-29.546,38.855-33.715,46.562c-4.169,7.707-10.913,49.769-21.833,67.107
	c-2.092,2.085-7.059,1.604-10.596,5.141s-23.767-3.198-23.767,3.537c-8.346,2.242-32.586,8.264-22.954,13.08
	c-3.492,3.491-9.994,10.114-6.743,11.078c3.251,0.963,9.513,1.564,12.282-1.205c-4.576,4.576-5.539,9.151,1.686,8.188
	c7.225-0.963,29.14-7.706,35.883-6.021c-7.225,3.612-6.743,19.748,5.057,13.005c11.801-6.743,35.883-8.43,38.051-20.711
	c0-3.854,22.758-28.538,29.621-35.401c6.864-6.864,24.324-39.255,36.365-51.296c4.816,10.355,25.527,26.972,25.527,26.972
	c-1.445,19.267-10.837,47.925-16.135,53.223c-5.298,5.299-17.58,34.438-20.952,48.646c-3.372,14.209-11.078,38.292-15.413,42.627
	c-4.335,4.334-4.335,10.596-4.335,10.596c-3.854,0-16.617,4.816-16.617,8.188c-6.984-1.204-14.811,2.77-16.617,4.575
	c-1.806,1.807-12.282-0.24-12.282,3.612c0,3.854,3.251,7.104,3.251,7.104c-1.565,4.215-14.088,13.606-17.941,15.533
	c-3.853,1.927-1.686,7.707-1.686,7.707c-4.576,0-8.429,12.041,3.974,8.549c0,6.382,7.104,9.271,19.868,2.77
	c12.764-6.502,23.119-4.816,23.119-4.816c-6.743,1.927-8.67,12.764-5.058,12.764c3.613,0,18.785-5.78,22.638-9.633
	c3.853-3.854,35.401-11.319,33.234-24.083c0-3.371,19.266-19.025,32.752-41.903c13.486-22.879,26.491-50.092,28.658-57.558
	c2.167-7.465,13.486-6.261,24.323-52.259c15.413,10.114,98.257,28.658,131.973,0.481c4.215,4.215,13.728,4.816,15.413,3.131
	c-1.686,9.151,10.114,13.005,10.114,13.005c-3.251,4.696,4.335,18.062,12.523,16.135c10.837,40.94,18.303,79.231,47.684,83.808
	c29.38,4.575,87.179-10.114,108.13-28.177c20.952-18.062,28.658-31.308,34.92-27.694c6.262,3.612,61.41,14.931,64.782,1.204
	C675.677,390.556,671.342,385.017,667.489,386.221z M589.461,339.02c-6.743,12.522-15.895,17.339-15.895,17.339
	c-7.466-1.444-41.903-6.502-50.332,13.968c6.983-16.616,6.021-22.878,6.021-22.878c5.147-0.948,17.919-9.836,22.382-35.296
	c13.02-1.482,33.249-1.046,40.188,6.449c4.169,4.508,11.921,8.7,19.146,11.718C603.301,328.905,593.91,330.756,589.461,339.02z"/>
</svg>
